<svg width="1000" height="690" viewBox="0 0 1000 690" fill="none" xmlns="http://www.w3.org/2000/svg">
<path d="M552.261 624.223H446.864C446.864 624.223 446.864 626.067 446.864 634.366C446.864 636.245 446.599 640.803 446.237 642.664C445.609 645.891 443.1 648.657 441.845 649.579C440.59 650.501 439.336 651.423 436.199 651.423C433.062 651.423 404.203 651.884 404.203 651.884H249.621V666.176V682.312H552.261V624.223Z" fill="#F1394F"/>
<rect x="4" y="92.2042" width="92.1079" height="590.108" rx="8" fill="#F1394F"/>
<path d="M446.995 66.0886C446.995 61.6704 450.577 58.0886 454.995 58.0886H517.172V682.312H454.995C450.577 682.312 446.995 678.73 446.995 674.312V66.0886Z" fill="#F1394F"/>
<rect x="4" width="550.454" height="58.0887" rx="10" fill="#F1394F"/>
<rect x="4" width="550.454" height="58.0887" rx="10" fill="url(#paint0_linear)"/>
<g filter="url(#filter0_d)">
<rect x="500.725" y="58.0886" width="53.7296" height="627.911" rx="10" fill="#F1394F"/>
<rect x="500.725" y="58.0886" width="53.7296" height="627.911" rx="10" fill="url(#paint1_linear)" fill-opacity="0.7"/>
<rect x="500.725" y="58.0886" width="53.7296" height="627.911" rx="10" fill="url(#paint2_linear)" fill-opacity="0.7"/>
</g>
<g filter="url(#filter1_d)">
<path d="M140.337 0H12C7.58172 0 4 3.58171 4 7.99999V102.645C4 107.063 7.58173 110.645 12 110.645H140.396C142.135 110.645 143.827 110.079 145.215 109.031L212.847 58.0035C213.171 57.7596 213.565 57.6277 213.969 57.6277C215.079 57.6277 215.56 56.2233 214.683 55.5434L145.24 1.67872C143.837 0.590578 142.112 0 140.337 0Z" fill="#F1394F"/>
</g>
<path d="M7.9519 627.963L70.5419 627.963C70.5419 627.963 70.5419 626.601 70.5419 634.845C70.5419 636.712 70.8067 641.24 71.1673 643.089C71.7926 646.295 74.2941 649.043 75.5448 649.959C76.7955 650.875 78.0463 651.791 81.1731 651.791C84.2999 651.791 113.067 652.249 113.067 652.249H250.008V666.878V682.478L9.92788 681.597L7.9519 627.963Z" fill="#F1394F"/>
<ellipse cx="59.3358" cy="47.1941" rx="34.702" ry="31.1818" fill="white"/>
<ellipse cx="59.3359" cy="47.1941" rx="31.4487" ry="28.2585" fill="#397EE6"/>
<ellipse cx="59.3359" cy="47.1941" rx="31.4487" ry="28.2585" fill="url(#paint3_radial)"/>
<ellipse cx="59.3358" cy="47.1941" rx="34.702" ry="31.1818" fill="white"/>
<ellipse cx="59.3359" cy="47.1941" rx="31.4487" ry="28.2585" fill="#9FE8ED"/>
<ellipse cx="59.3359" cy="47.1941" rx="31.4487" ry="28.2585" fill="url(#paint4_radial)"/>
<g filter="url(#filter2_i)">
<ellipse cx="140.556" cy="22.0056" rx="7.1274" ry="5.99328" fill="#FF0505"/>
</g>
<g filter="url(#filter3_i)">
<ellipse cx="171.259" cy="22.0056" rx="7.1274" ry="5.99328" fill="#FEF406"/>
</g>
<g filter="url(#filter4_i)">
<path d="M209.089 22.0056C209.089 25.3156 205.898 27.9989 201.962 27.9989C198.025 27.9989 194.834 25.3156 194.834 22.0056C194.834 18.6956 198.025 16.0123 201.962 16.0123C205.898 16.0123 209.089 18.6956 209.089 22.0056Z" fill="#179E3D"/>
</g>
<path d="M553.32 55.1941C553.32 50.7758 556.902 47.1941 561.32 47.1941H746.438C748.237 47.1941 749.967 47.7873 751.379 48.9028C759.327 55.1851 786.61 76.7686 789.436 79.2882C792.748 82.2413 803.631 81.6486 809.783 81.6486C815.934 81.6485 869.876 81.6486 869.876 81.6486H992C996.418 81.6486 1000 85.2303 1000 89.6486V674.478C1000 678.896 996.418 682.478 992 682.478H561.32C556.902 682.478 553.32 678.896 553.32 674.478V55.1941Z" fill="#F1394F"/>
<g filter="url(#filter5_ii)">
<path d="M568.046 73.1146C568.046 68.6963 571.628 65.1146 576.046 65.1146H748.222C750.037 65.1146 751.79 65.7259 753.208 66.8591C760.834 72.9572 785.973 93.0794 788.593 95.4434C791.687 98.234 801.853 97.6739 807.599 97.6738C813.344 97.6738 863.73 97.6738 863.73 97.6738H977.274C981.692 97.6738 985.274 101.256 985.274 105.674V657.453C985.274 661.871 981.692 665.453 977.274 665.453H576.046C571.628 665.453 568.046 661.871 568.046 657.453V73.1146Z" fill="#F1394F"/>
</g>
<g filter="url(#filter6_d)">
<rect x="630.383" y="347.843" width="309.24" height="65.1656" rx="8" fill="#6C9FEC"/>
</g>
<g filter="url(#filter7_d)">
<ellipse cx="831.634" cy="500.774" rx="26.6756" ry="23.7766" fill="#60C72F"/>
<ellipse cx="831.634" cy="500.774" rx="26.6756" ry="23.7766" fill="url(#paint5_radial)"/>
</g>
<g filter="url(#filter8_d)">
<path d="M858.31 500.774C858.31 513.906 846.367 524.551 831.634 524.551C816.902 524.551 804.959 513.906 804.959 500.774C804.959 487.643 816.902 476.998 831.634 476.998C846.367 476.998 858.31 487.643 858.31 500.774Z" fill="#A50606"/>
<path d="M858.31 500.774C858.31 513.906 846.367 524.551 831.634 524.551C816.902 524.551 804.959 513.906 804.959 500.774C804.959 487.643 816.902 476.998 831.634 476.998C846.367 476.998 858.31 487.643 858.31 500.774Z" fill="url(#paint6_radial)"/>
</g>
<g filter="url(#filter9_d)">
<ellipse cx="909.479" cy="500.774" rx="26.6756" ry="23.7766" fill="#FFCB14"/>
<ellipse cx="909.479" cy="500.774" rx="26.6756" ry="23.7766" fill="url(#paint7_radial)"/>
</g>
<g filter="url(#filter10_d)">
<ellipse cx="909.479" cy="500.774" rx="26.6756" ry="23.7766" fill="#60C72F"/>
<ellipse cx="909.479" cy="500.774" rx="26.6756" ry="23.7766" fill="url(#paint8_radial)"/>
</g>
<g filter="url(#filter11_d)">
<path d="M630.511 591.713C630.511 588.399 633.197 585.713 636.511 585.713H754.925C758.239 585.713 760.925 588.399 760.925 591.713V621.982C760.925 625.296 758.239 627.982 754.925 627.982H636.511C633.197 627.982 630.511 625.296 630.511 621.982V591.713Z" fill="#475495"/>
</g>
<g filter="url(#filter12_d)">
<rect x="831.398" y="585.652" width="142.679" height="43.389" rx="6" fill="#475495"/>
</g>
<g filter="url(#filter13_i)">
<rect x="687.723" y="158.437" width="187.578" height="154.224" rx="5" fill="black" fill-opacity="0.25"/>
</g>
<g filter="url(#filter14_d)">
<mask id="path-25-inside-1" fill="white">
<path fill-rule="evenodd" clip-rule="evenodd" d="M676.716 466.042C674.507 466.042 672.716 467.833 672.716 470.042V491.324H648.58C646.37 491.324 644.58 493.115 644.58 495.324V505.865C644.58 508.074 646.37 509.865 648.58 509.865H672.716V531.147C672.716 533.357 674.507 535.147 676.716 535.147H687.474C689.683 535.147 691.474 533.357 691.474 531.147V509.865H716.549C718.758 509.865 720.549 508.074 720.549 505.865V495.324C720.549 493.115 718.758 491.324 716.549 491.324H691.474V470.042C691.474 467.833 689.683 466.042 687.474 466.042H676.716Z"/>
</mask>
<path fill-rule="evenodd" clip-rule="evenodd" d="M676.716 466.042C674.507 466.042 672.716 467.833 672.716 470.042V491.324H648.58C646.37 491.324 644.58 493.115 644.58 495.324V505.865C644.58 508.074 646.37 509.865 648.58 509.865H672.716V531.147C672.716 533.357 674.507 535.147 676.716 535.147H687.474C689.683 535.147 691.474 533.357 691.474 531.147V509.865H716.549C718.758 509.865 720.549 508.074 720.549 505.865V495.324C720.549 493.115 718.758 491.324 716.549 491.324H691.474V470.042C691.474 467.833 689.683 466.042 687.474 466.042H676.716Z" fill="#575454"/>
<path d="M672.716 491.324V492.324H673.716V491.324H672.716ZM672.716 509.865H673.716V508.865H672.716V509.865ZM691.474 509.865V508.865H690.474V509.865H691.474ZM691.474 491.324H690.474V492.324H691.474V491.324ZM673.716 470.042C673.716 468.385 675.059 467.042 676.716 467.042V465.042C673.955 465.042 671.716 467.28 671.716 470.042H673.716ZM673.716 491.324V470.042H671.716V491.324H673.716ZM648.58 492.324H672.716V490.324H648.58V492.324ZM645.58 495.324C645.58 493.667 646.923 492.324 648.58 492.324V490.324C645.818 490.324 643.58 492.563 643.58 495.324H645.58ZM645.58 505.865V495.324H643.58V505.865H645.58ZM648.58 508.865C646.923 508.865 645.58 507.522 645.58 505.865H643.58C643.58 508.626 645.818 510.865 648.58 510.865V508.865ZM672.716 508.865H648.58V510.865H672.716V508.865ZM673.716 531.147V509.865H671.716V531.147H673.716ZM676.716 534.147C675.059 534.147 673.716 532.804 673.716 531.147H671.716C671.716 533.909 673.955 536.147 676.716 536.147V534.147ZM687.474 534.147H676.716V536.147H687.474V534.147ZM690.474 531.147C690.474 532.804 689.131 534.147 687.474 534.147V536.147C690.235 536.147 692.474 533.909 692.474 531.147H690.474ZM690.474 509.865V531.147H692.474V509.865H690.474ZM716.549 508.865H691.474V510.865H716.549V508.865ZM719.549 505.865C719.549 507.522 718.206 508.865 716.549 508.865V510.865C719.31 510.865 721.549 508.626 721.549 505.865H719.549ZM719.549 495.324V505.865H721.549V495.324H719.549ZM716.549 492.324C718.206 492.324 719.549 493.667 719.549 495.324H721.549C721.549 492.563 719.31 490.324 716.549 490.324V492.324ZM691.474 492.324H716.549V490.324H691.474V492.324ZM690.474 470.042V491.324H692.474V470.042H690.474ZM687.474 467.042C689.131 467.042 690.474 468.385 690.474 470.042H692.474C692.474 467.28 690.235 465.042 687.474 465.042V467.042ZM676.716 467.042H687.474V465.042H676.716V467.042Z" fill="#575454" mask="url(#path-25-inside-1)"/>
<mask id="path-27-inside-2" fill="white">
<path fill-rule="evenodd" clip-rule="evenodd" d="M678.671 466.042C676.462 466.042 674.671 467.833 674.671 470.042V491.324H650.455C648.246 491.324 646.455 493.115 646.455 495.324V502.494C646.455 504.703 648.246 506.494 650.455 506.494H674.671V528.268C674.671 530.477 676.462 532.268 678.671 532.268H687.626C689.835 532.268 691.626 530.477 691.626 528.268V506.494H716.549C718.758 506.494 720.549 504.703 720.549 502.494V495.324C720.549 493.115 718.758 491.324 716.549 491.324H691.626V470.042C691.626 467.833 689.835 466.042 687.626 466.042H678.671Z"/>
</mask>
<path fill-rule="evenodd" clip-rule="evenodd" d="M678.671 466.042C676.462 466.042 674.671 467.833 674.671 470.042V491.324H650.455C648.246 491.324 646.455 493.115 646.455 495.324V502.494C646.455 504.703 648.246 506.494 650.455 506.494H674.671V528.268C674.671 530.477 676.462 532.268 678.671 532.268H687.626C689.835 532.268 691.626 530.477 691.626 528.268V506.494H716.549C718.758 506.494 720.549 504.703 720.549 502.494V495.324C720.549 493.115 718.758 491.324 716.549 491.324H691.626V470.042C691.626 467.833 689.835 466.042 687.626 466.042H678.671Z" fill="#7D7D7D"/>
<path d="M674.671 491.324V492.324H675.671V491.324H674.671ZM674.671 506.494H675.671V505.494H674.671V506.494ZM691.626 506.494V505.494H690.626V506.494H691.626ZM691.626 491.324H690.626V492.324H691.626V491.324ZM675.671 470.042C675.671 468.385 677.014 467.042 678.671 467.042V465.042C675.91 465.042 673.671 467.28 673.671 470.042H675.671ZM675.671 491.324V470.042H673.671V491.324H675.671ZM650.455 492.324H674.671V490.324H650.455V492.324ZM647.455 495.324C647.455 493.667 648.798 492.324 650.455 492.324V490.324C647.694 490.324 645.455 492.563 645.455 495.324H647.455ZM647.455 502.494V495.324H645.455V502.494H647.455ZM650.455 505.494C648.798 505.494 647.455 504.151 647.455 502.494H645.455C645.455 505.255 647.694 507.494 650.455 507.494V505.494ZM674.671 505.494H650.455V507.494H674.671V505.494ZM675.671 528.268V506.494H673.671V528.268H675.671ZM678.671 531.268C677.014 531.268 675.671 529.925 675.671 528.268H673.671C673.671 531.029 675.91 533.268 678.671 533.268V531.268ZM687.626 531.268H678.671V533.268H687.626V531.268ZM690.626 528.268C690.626 529.925 689.283 531.268 687.626 531.268V533.268C690.387 533.268 692.626 531.029 692.626 528.268H690.626ZM690.626 506.494V528.268H692.626V506.494H690.626ZM716.549 505.494H691.626V507.494H716.549V505.494ZM719.549 502.494C719.549 504.151 718.206 505.494 716.549 505.494V507.494C719.31 507.494 721.549 505.255 721.549 502.494H719.549ZM719.549 495.324V502.494H721.549V495.324H719.549ZM716.549 492.324C718.206 492.324 719.549 493.667 719.549 495.324H721.549C721.549 492.563 719.31 490.324 716.549 490.324V492.324ZM691.626 492.324H716.549V490.324H691.626V492.324ZM690.626 470.042V491.324H692.626V470.042H690.626ZM687.626 467.042C689.283 467.042 690.626 468.385 690.626 470.042H692.626C692.626 467.28 690.387 465.042 687.626 465.042V467.042ZM678.671 467.042H687.626V465.042H678.671V467.042Z" fill="#575454" mask="url(#path-27-inside-2)"/>
<path d="M684.659 498.066C684.659 498.835 683.957 499.502 683.033 499.502C682.109 499.502 681.407 498.835 681.407 498.066C681.407 497.298 682.109 496.631 683.033 496.631C683.957 496.631 684.659 497.298 684.659 498.066Z" fill="#636363" stroke="#575454" stroke-width="0.5"/>
</g>
<defs>
<filter id="filter0_d" x="496.725" y="54.0886" width="61.7296" height="635.911" filterUnits="userSpaceOnUse" color-interpolation-filters="sRGB">
<feFlood flood-opacity="0" result="BackgroundImageFix"/>
<feColorMatrix in="SourceAlpha" type="matrix" values="0 0 0 0 0 0 0 0 0 0 0 0 0 0 0 0 0 0 127 0" result="hardAlpha"/>
<feOffset/>
<feGaussianBlur stdDeviation="2"/>
<feComposite in2="hardAlpha" operator="out"/>
<feColorMatrix type="matrix" values="0 0 0 0 0 0 0 0 0 0 0 0 0 0 0 0 0 0 0.25 0"/>
<feBlend mode="normal" in2="BackgroundImageFix" result="effect1_dropShadow"/>
<feBlend mode="normal" in="SourceGraphic" in2="effect1_dropShadow" result="shape"/>
</filter>
<filter id="filter1_d" x="0" y="0" width="219.136" height="118.645" filterUnits="userSpaceOnUse" color-interpolation-filters="sRGB">
<feFlood flood-opacity="0" result="BackgroundImageFix"/>
<feColorMatrix in="SourceAlpha" type="matrix" values="0 0 0 0 0 0 0 0 0 0 0 0 0 0 0 0 0 0 127 0" result="hardAlpha"/>
<feOffset dy="4"/>
<feGaussianBlur stdDeviation="2"/>
<feComposite in2="hardAlpha" operator="out"/>
<feColorMatrix type="matrix" values="0 0 0 0 0 0 0 0 0 0 0 0 0 0 0 0 0 0 0.4 0"/>
<feBlend mode="normal" in2="BackgroundImageFix" result="effect1_dropShadow"/>
<feBlend mode="normal" in="SourceGraphic" in2="effect1_dropShadow" result="shape"/>
</filter>
<filter id="filter2_i" x="133.429" y="16.0123" width="14.2548" height="15.9866" filterUnits="userSpaceOnUse" color-interpolation-filters="sRGB">
<feFlood flood-opacity="0" result="BackgroundImageFix"/>
<feBlend mode="normal" in="SourceGraphic" in2="BackgroundImageFix" result="shape"/>
<feColorMatrix in="SourceAlpha" type="matrix" values="0 0 0 0 0 0 0 0 0 0 0 0 0 0 0 0 0 0 127 0" result="hardAlpha"/>
<feOffset dy="4"/>
<feGaussianBlur stdDeviation="2"/>
<feComposite in2="hardAlpha" operator="arithmetic" k2="-1" k3="1"/>
<feColorMatrix type="matrix" values="0 0 0 0 0 0 0 0 0 0 0 0 0 0 0 0 0 0 0.25 0"/>
<feBlend mode="normal" in2="shape" result="effect1_innerShadow"/>
</filter>
<filter id="filter3_i" x="164.132" y="16.0123" width="14.2548" height="15.9866" filterUnits="userSpaceOnUse" color-interpolation-filters="sRGB">
<feFlood flood-opacity="0" result="BackgroundImageFix"/>
<feBlend mode="normal" in="SourceGraphic" in2="BackgroundImageFix" result="shape"/>
<feColorMatrix in="SourceAlpha" type="matrix" values="0 0 0 0 0 0 0 0 0 0 0 0 0 0 0 0 0 0 127 0" result="hardAlpha"/>
<feOffset dy="4"/>
<feGaussianBlur stdDeviation="2"/>
<feComposite in2="hardAlpha" operator="arithmetic" k2="-1" k3="1"/>
<feColorMatrix type="matrix" values="0 0 0 0 0 0 0 0 0 0 0 0 0 0 0 0 0 0 0.25 0"/>
<feBlend mode="normal" in2="shape" result="effect1_innerShadow"/>
</filter>
<filter id="filter4_i" x="194.834" y="16.0123" width="14.2548" height="15.9866" filterUnits="userSpaceOnUse" color-interpolation-filters="sRGB">
<feFlood flood-opacity="0" result="BackgroundImageFix"/>
<feBlend mode="normal" in="SourceGraphic" in2="BackgroundImageFix" result="shape"/>
<feColorMatrix in="SourceAlpha" type="matrix" values="0 0 0 0 0 0 0 0 0 0 0 0 0 0 0 0 0 0 127 0" result="hardAlpha"/>
<feOffset dy="4"/>
<feGaussianBlur stdDeviation="2"/>
<feComposite in2="hardAlpha" operator="arithmetic" k2="-1" k3="1"/>
<feColorMatrix type="matrix" values="0 0 0 0 0 0 0 0 0 0 0 0 0 0 0 0 0 0 0.25 0"/>
<feBlend mode="normal" in2="shape" result="effect1_innerShadow"/>
</filter>
<filter id="filter5_ii" x="568.046" y="65.1146" width="421.228" height="604.338" filterUnits="userSpaceOnUse" color-interpolation-filters="sRGB">
<feFlood flood-opacity="0" result="BackgroundImageFix"/>
<feBlend mode="normal" in="SourceGraphic" in2="BackgroundImageFix" result="shape"/>
<feColorMatrix in="SourceAlpha" type="matrix" values="0 0 0 0 0 0 0 0 0 0 0 0 0 0 0 0 0 0 127 0" result="hardAlpha"/>
<feOffset dx="4"/>
<feGaussianBlur stdDeviation="2"/>
<feComposite in2="hardAlpha" operator="arithmetic" k2="-1" k3="1"/>
<feColorMatrix type="matrix" values="0 0 0 0 1 0 0 0 0 1 0 0 0 0 1 0 0 0 0.3 0"/>
<feBlend mode="normal" in2="shape" result="effect1_innerShadow"/>
<feColorMatrix in="SourceAlpha" type="matrix" values="0 0 0 0 0 0 0 0 0 0 0 0 0 0 0 0 0 0 127 0" result="hardAlpha"/>
<feOffset dy="4"/>
<feGaussianBlur stdDeviation="2"/>
<feComposite in2="hardAlpha" operator="arithmetic" k2="-1" k3="1"/>
<feColorMatrix type="matrix" values="0 0 0 0 0 0 0 0 0 0 0 0 0 0 0 0 0 0 0.25 0"/>
<feBlend mode="normal" in2="effect1_innerShadow" result="effect2_innerShadow"/>
</filter>
<filter id="filter6_d" x="630.383" y="347.843" width="318.24" height="74.1656" filterUnits="userSpaceOnUse" color-interpolation-filters="sRGB">
<feFlood flood-opacity="0" result="BackgroundImageFix"/>
<feColorMatrix in="SourceAlpha" type="matrix" values="0 0 0 0 0 0 0 0 0 0 0 0 0 0 0 0 0 0 127 0" result="hardAlpha"/>
<feOffset dx="5" dy="5"/>
<feGaussianBlur stdDeviation="2"/>
<feComposite in2="hardAlpha" operator="out"/>
<feColorMatrix type="matrix" values="0 0 0 0 0 0 0 0 0 0 0 0 0 0 0 0 0 0 0.25 0"/>
<feBlend mode="normal" in2="BackgroundImageFix" result="effect1_dropShadow"/>
<feBlend mode="normal" in="SourceGraphic" in2="effect1_dropShadow" result="shape"/>
</filter>
<filter id="filter7_d" x="800.959" y="476.998" width="61.3513" height="55.5533" filterUnits="userSpaceOnUse" color-interpolation-filters="sRGB">
<feFlood flood-opacity="0" result="BackgroundImageFix"/>
<feColorMatrix in="SourceAlpha" type="matrix" values="0 0 0 0 0 0 0 0 0 0 0 0 0 0 0 0 0 0 127 0" result="hardAlpha"/>
<feOffset dy="4"/>
<feGaussianBlur stdDeviation="2"/>
<feComposite in2="hardAlpha" operator="out"/>
<feColorMatrix type="matrix" values="0 0 0 0 0 0 0 0 0 0 0 0 0 0 0 0 0 0 0.25 0"/>
<feBlend mode="normal" in2="BackgroundImageFix" result="effect1_dropShadow"/>
<feBlend mode="normal" in="SourceGraphic" in2="effect1_dropShadow" result="shape"/>
</filter>
<filter id="filter8_d" x="800.959" y="476.998" width="61.3513" height="55.5533" filterUnits="userSpaceOnUse" color-interpolation-filters="sRGB">
<feFlood flood-opacity="0" result="BackgroundImageFix"/>
<feColorMatrix in="SourceAlpha" type="matrix" values="0 0 0 0 0 0 0 0 0 0 0 0 0 0 0 0 0 0 127 0" result="hardAlpha"/>
<feOffset dy="4"/>
<feGaussianBlur stdDeviation="2"/>
<feComposite in2="hardAlpha" operator="out"/>
<feColorMatrix type="matrix" values="0 0 0 0 0 0 0 0 0 0 0 0 0 0 0 0 0 0 0.25 0"/>
<feBlend mode="normal" in2="BackgroundImageFix" result="effect1_dropShadow"/>
<feBlend mode="normal" in="SourceGraphic" in2="effect1_dropShadow" result="shape"/>
</filter>
<filter id="filter9_d" x="878.804" y="476.998" width="61.3512" height="55.5533" filterUnits="userSpaceOnUse" color-interpolation-filters="sRGB">
<feFlood flood-opacity="0" result="BackgroundImageFix"/>
<feColorMatrix in="SourceAlpha" type="matrix" values="0 0 0 0 0 0 0 0 0 0 0 0 0 0 0 0 0 0 127 0" result="hardAlpha"/>
<feOffset dy="4"/>
<feGaussianBlur stdDeviation="2"/>
<feComposite in2="hardAlpha" operator="out"/>
<feColorMatrix type="matrix" values="0 0 0 0 0 0 0 0 0 0 0 0 0 0 0 0 0 0 0.25 0"/>
<feBlend mode="normal" in2="BackgroundImageFix" result="effect1_dropShadow"/>
<feBlend mode="normal" in="SourceGraphic" in2="effect1_dropShadow" result="shape"/>
</filter>
<filter id="filter10_d" x="878.804" y="476.998" width="61.3512" height="55.5533" filterUnits="userSpaceOnUse" color-interpolation-filters="sRGB">
<feFlood flood-opacity="0" result="BackgroundImageFix"/>
<feColorMatrix in="SourceAlpha" type="matrix" values="0 0 0 0 0 0 0 0 0 0 0 0 0 0 0 0 0 0 127 0" result="hardAlpha"/>
<feOffset dy="4"/>
<feGaussianBlur stdDeviation="2"/>
<feComposite in2="hardAlpha" operator="out"/>
<feColorMatrix type="matrix" values="0 0 0 0 0 0 0 0 0 0 0 0 0 0 0 0 0 0 0.25 0"/>
<feBlend mode="normal" in2="BackgroundImageFix" result="effect1_dropShadow"/>
<feBlend mode="normal" in="SourceGraphic" in2="effect1_dropShadow" result="shape"/>
</filter>
<filter id="filter11_d" x="630.511" y="585.713" width="138.414" height="50.2696" filterUnits="userSpaceOnUse" color-interpolation-filters="sRGB">
<feFlood flood-opacity="0" result="BackgroundImageFix"/>
<feColorMatrix in="SourceAlpha" type="matrix" values="0 0 0 0 0 0 0 0 0 0 0 0 0 0 0 0 0 0 127 0" result="hardAlpha"/>
<feOffset dx="4" dy="4"/>
<feGaussianBlur stdDeviation="2"/>
<feComposite in2="hardAlpha" operator="out"/>
<feColorMatrix type="matrix" values="0 0 0 0 0 0 0 0 0 0 0 0 0 0 0 0 0 0 0.25 0"/>
<feBlend mode="normal" in2="BackgroundImageFix" result="effect1_dropShadow"/>
<feBlend mode="normal" in="SourceGraphic" in2="effect1_dropShadow" result="shape"/>
</filter>
<filter id="filter12_d" x="831.398" y="585.652" width="150.679" height="51.389" filterUnits="userSpaceOnUse" color-interpolation-filters="sRGB">
<feFlood flood-opacity="0" result="BackgroundImageFix"/>
<feColorMatrix in="SourceAlpha" type="matrix" values="0 0 0 0 0 0 0 0 0 0 0 0 0 0 0 0 0 0 127 0" result="hardAlpha"/>
<feOffset dx="4" dy="4"/>
<feGaussianBlur stdDeviation="2"/>
<feComposite in2="hardAlpha" operator="out"/>
<feColorMatrix type="matrix" values="0 0 0 0 0 0 0 0 0 0 0 0 0 0 0 0 0 0 0.25 0"/>
<feBlend mode="normal" in2="BackgroundImageFix" result="effect1_dropShadow"/>
<feBlend mode="normal" in="SourceGraphic" in2="effect1_dropShadow" result="shape"/>
</filter>
<filter id="filter13_i" x="687.723" y="158.437" width="191.578" height="158.224" filterUnits="userSpaceOnUse" color-interpolation-filters="sRGB">
<feFlood flood-opacity="0" result="BackgroundImageFix"/>
<feBlend mode="normal" in="SourceGraphic" in2="BackgroundImageFix" result="shape"/>
<feColorMatrix in="SourceAlpha" type="matrix" values="0 0 0 0 0 0 0 0 0 0 0 0 0 0 0 0 0 0 127 0" result="hardAlpha"/>
<feOffset dx="4" dy="4"/>
<feGaussianBlur stdDeviation="2"/>
<feComposite in2="hardAlpha" operator="arithmetic" k2="-1" k3="1"/>
<feColorMatrix type="matrix" values="0 0 0 0 0 0 0 0 0 0 0 0 0 0 0 0 0 0 0.25 0"/>
<feBlend mode="normal" in2="shape" result="effect1_innerShadow"/>
</filter>
<filter id="filter14_d" x="640.58" y="466.042" width="83.9692" height="77.1057" filterUnits="userSpaceOnUse" color-interpolation-filters="sRGB">
<feFlood flood-opacity="0" result="BackgroundImageFix"/>
<feColorMatrix in="SourceAlpha" type="matrix" values="0 0 0 0 0 0 0 0 0 0 0 0 0 0 0 0 0 0 127 0" result="hardAlpha"/>
<feOffset dy="4"/>
<feGaussianBlur stdDeviation="2"/>
<feComposite in2="hardAlpha" operator="out"/>
<feColorMatrix type="matrix" values="0 0 0 0 0 0 0 0 0 0 0 0 0 0 0 0 0 0 0.25 0"/>
<feBlend mode="normal" in2="BackgroundImageFix" result="effect1_dropShadow"/>
<feBlend mode="normal" in="SourceGraphic" in2="effect1_dropShadow" result="shape"/>
</filter>
<linearGradient id="paint0_linear" x1="575.26" y1="5.08483e-07" x2="527.704" y2="1.09155e-06" gradientUnits="userSpaceOnUse">
<stop stop-color="white"/>
<stop offset="1" stop-color="white" stop-opacity="0"/>
</linearGradient>
<linearGradient id="paint1_linear" x1="583.512" y1="58.0886" x2="528.138" y2="58.0886" gradientUnits="userSpaceOnUse">
<stop offset="0.145833" stop-color="#FCFCFC"/>
<stop offset="1" stop-color="#FCFCFC" stop-opacity="0"/>
</linearGradient>
<linearGradient id="paint2_linear" x1="454.671" y1="686" x2="551.165" y2="686" gradientUnits="userSpaceOnUse">
<stop stop-color="white"/>
<stop offset="0.699945" stop-color="white" stop-opacity="0"/>
</linearGradient>
<radialGradient id="paint3_radial" cx="0" cy="0" r="1" gradientUnits="userSpaceOnUse" gradientTransform="translate(73.8731 34.9742) rotate(127.879) scale(26.5864 28.7409)">
<stop stop-color="white" stop-opacity="0.31"/>
<stop offset="0.0001" stop-color="white" stop-opacity="0.286012"/>
<stop offset="1" stop-color="white" stop-opacity="0"/>
</radialGradient>
<radialGradient id="paint4_radial" cx="0" cy="0" r="1" gradientUnits="userSpaceOnUse" gradientTransform="translate(69.6526 33.7101) rotate(127.613) scale(27.6608 40.8216)">
<stop stop-color="white" stop-opacity="0.286012"/>
<stop stop-color="white"/>
<stop offset="1" stop-color="white" stop-opacity="0"/>
<stop offset="1" stop-color="white" stop-opacity="0"/>
</radialGradient>
<radialGradient id="paint5_radial" cx="0" cy="0" r="1" gradientUnits="userSpaceOnUse" gradientTransform="translate(839.682 490.455) rotate(103.28) scale(35.0326 38.8673)">
<stop offset="0.0416667" stop-color="#2EFF36"/>
<stop offset="0.955789" stop-color="#24A30F" stop-opacity="0"/>
</radialGradient>
<radialGradient id="paint6_radial" cx="0" cy="0" r="1" gradientUnits="userSpaceOnUse" gradientTransform="translate(836.324 490.903) rotate(114.542) scale(35.1297 38.0668)">
<stop offset="0.0416667" stop-color="#E24F4F"/>
<stop offset="1" stop-color="#EC0101" stop-opacity="0"/>
</radialGradient>
<radialGradient id="paint7_radial" cx="0" cy="0" r="1" gradientUnits="userSpaceOnUse" gradientTransform="translate(916.852 491.719) rotate(102.859) scale(33.7129 27.7591)">
<stop stop-color="#FFF61C"/>
<stop offset="0.428556" stop-color="#FFF16F" stop-opacity="0"/>
</radialGradient>
<radialGradient id="paint8_radial" cx="0" cy="0" r="1" gradientUnits="userSpaceOnUse" gradientTransform="translate(917.527 490.455) rotate(103.28) scale(35.0326 38.8673)">
<stop offset="0.0416667" stop-color="#2EFF36"/>
<stop offset="0.955789" stop-color="#24A30F" stop-opacity="0"/>
</radialGradient>
</defs>
</svg>
